<svg width="116" height="128" viewBox="0 0 116 128" fill="none" xmlns="http://www.w3.org/2000/svg">
<path d="M113.544 17.8905L89.0411 40.8044C83.5561 35.7295 75.7131 32.7563 66.6398 32.7563C48.4933 32.7563 35.3704 44.9565 35.3704 61.719C35.3704 73.3554 38.6065 81.284 48.5 86L14.5 100.5C4.09394 89.6326 0 77.405 0 61.719C0 27.6302 29.8341 0.000289196 66.6398 0.000289196C84.9402 -0.0509722 101.498 6.71553 113.544 17.8905Z" fill="#123265"/>
<path d="M69.2029 128C87.1444 128 103.343 120.926 115.031 109.751L90.8865 87.0422C85.5553 92.2709 77.9686 95.2441 69.2029 95.2441C64.8457 95.2441 63.1396 95.3841 59.5 94L50 125.5C56.9716 127.961 61.3599 128 69.2029 128Z" fill="#123265"/>
<path d="M50 94.8512C50 94.978 50 95.1049 49.9567 95.2318L44.1071 112.654L41.204 121.323C41.1607 121.45 41.074 121.577 40.9874 121.662C40.8141 121.873 40.5107 122 40.2074 122C39.7741 122 39.4275 121.662 39.3408 121.239L35.1811 110.202L23.8287 107.115C23.3954 107.072 23.0488 106.776 23.0054 106.353C22.9621 105.931 23.1787 105.508 23.612 105.339L29.115 102.844L48.4401 94.1746L48.6568 94.09C49.0034 93.9208 49.3934 94.0054 49.6534 94.2168C49.87 94.386 49.9567 94.5974 50 94.8512Z" stroke="#123265" stroke-width="3" stroke-miterlimit="10"/>
</svg>
